<svg xmlns="http://www.w3.org/2000/svg" viewBox="0 0 512 512">
  <rect width="512" height="512" fill="#4700d1"/>
  <!-- Black: vertical stem + top curve of R -->
  <path d="M140 60 L140 310 L200 310 L200 120 L260 120 C340 120 370 160 370 210 C370 260 340 290 270 290 L200 290 L200 310 L140 310 L140 60 Z" fill="#000000"/>
  <path d="M260 120 C350 120 400 165 400 220 C400 280 350 310 290 310 L200 310 L200 290 L270 290 C340 290 370 260 370 210 C370 160 340 120 260 120 Z" fill="#000000"/>
  <!-- White: outer large arc (wifi signal) from bottom-left curving right and up -->
  <path d="M130 320 C130 320 140 280 200 260 C280 232 380 270 420 380" stroke="#ffffff" stroke-width="46" fill="none" stroke-linecap="round"/>
  <!-- White: inner smaller arc -->
  <path d="M140 390 C140 390 180 340 240 340 C290 340 330 370 350 420" stroke="#ffffff" stroke-width="38" fill="none" stroke-linecap="round"/>
</svg>
